<svg data-v-423bf9ae="" xmlns="http://www.w3.org/2000/svg" viewBox="0 0 279.02290172364616 60" class="font"><!----><!----><!----><g data-v-423bf9ae="" id="00cbb3a0-ea09-43cb-b8f5-abeec4202501" fill="black" transform="matrix(4.58015251159668,0,0,4.58015251159668,-6.458020210266113,-14.564886093139648)"><path d="M2.32 6.15L2.45 7.17Q3.11 5.98 4.42 5.98Q5.73 5.98 6.60 6.94Q7.48 7.91 7.48 9.49Q7.48 11.07 6.59 12.03Q5.71 12.99 4.42 12.99Q3.14 12.99 2.52 12.03L2.52 12.03L2.52 16.13L1.41 16.13L1.41 6.15L2.32 6.15ZM4.37 12.01Q5.15 12.01 5.75 11.34Q6.34 10.67 6.34 9.50Q6.34 8.33 5.78 7.64Q5.21 6.96 4.40 6.96Q3.58 6.96 3.07 7.47Q2.55 7.98 2.52 8.85L2.52 8.85L2.52 10.12Q2.52 11.00 3.05 11.51Q3.58 12.01 4.37 12.01ZM10.67 6.15L10.79 7.43Q11.45 5.98 13.05 5.98L13.05 5.98Q14.24 5.98 14.90 6.76Q15.57 7.55 15.57 8.90L15.57 8.90L15.57 12.84L14.48 12.84L14.48 8.90Q14.48 7.94 14.02 7.45Q13.57 6.96 12.73 6.96Q11.89 6.96 11.37 7.64Q10.85 8.33 10.82 9.55L10.82 9.55L10.82 12.84L9.72 12.84L9.72 6.15L10.67 6.15ZM25.89 7.14L25.89 7.14L25.89 3.30L26.98 3.30L26.98 12.84L26.08 12.84L25.94 11.72Q25.62 12.35 25.09 12.67Q24.56 12.99 23.93 12.99L23.93 12.99Q22.65 12.99 21.79 12.01Q20.93 11.03 20.93 9.46Q20.93 7.88 21.78 6.93Q22.62 5.98 23.92 5.98Q25.21 5.98 25.89 7.14ZM23.98 6.96Q23.17 6.96 22.62 7.64Q22.06 8.33 22.06 9.48Q22.06 10.63 22.62 11.32Q23.18 12.01 23.97 12.01Q24.75 12.01 25.31 11.49Q25.86 10.96 25.89 10.08L25.89 10.08L25.89 8.99Q25.89 8.05 25.34 7.50Q24.79 6.96 23.98 6.96ZM32.13 12.10L32.13 12.10Q33.52 12.10 33.71 10.88L33.71 10.88L34.85 10.88Q34.69 11.89 33.96 12.44Q33.22 12.99 32.13 12.99L32.13 12.99Q30.79 12.99 29.95 12.03Q29.11 11.07 29.11 9.48Q29.11 7.88 29.95 6.93Q30.80 5.98 32.21 5.98Q33.61 5.98 34.31 7.07Q35.00 8.16 34.79 9.73L34.79 9.73L30.21 9.73Q30.21 10.77 30.72 11.43Q31.22 12.10 32.13 12.10ZM32.94 7.03L32.94 7.03Q32.62 6.86 32.16 6.86L32.16 6.86Q31.30 6.86 30.81 7.44Q30.31 8.02 30.23 8.89L30.23 8.89L33.80 8.89Q33.80 7.49 32.94 7.03ZM36.68 7.78Q36.68 6.96 37.39 6.47Q38.09 5.98 39.30 5.98Q40.50 5.98 41.18 6.48Q41.86 6.99 41.89 7.76L41.89 7.76L40.81 7.76Q40.68 6.85 39.27 6.85L39.27 6.85Q38.58 6.85 38.21 7.15Q37.84 7.46 37.84 7.82Q37.84 8.18 38.12 8.42Q38.40 8.67 39.02 8.85L39.02 8.85L40.36 9.30Q41.22 9.56 41.67 9.98Q42.13 10.39 42.13 11.11Q42.13 11.83 41.38 12.41Q40.64 12.99 39.31 12.99Q37.98 12.99 37.24 12.40Q36.50 11.80 36.46 10.86L36.46 10.86L37.52 10.86Q37.55 11.49 38.03 11.81Q38.51 12.12 39.24 12.12Q39.97 12.12 40.45 11.82Q40.92 11.51 40.92 11.08Q40.92 10.65 40.64 10.43Q40.36 10.21 39.73 10.04L39.73 10.04L38.43 9.60Q36.68 9.09 36.68 7.78L36.68 7.78ZM44.46 12.84L44.46 6.13L45.57 6.13L45.57 12.84L44.46 12.84ZM45.01 4.56Q44.67 4.56 44.49 4.38Q44.30 4.19 44.30 3.87Q44.30 3.56 44.49 3.37Q44.67 3.18 45.01 3.18Q45.35 3.18 45.55 3.37Q45.75 3.56 45.75 3.87Q45.75 4.19 45.55 4.38Q45.35 4.56 45.01 4.56ZM48.86 12.63L48.86 12.63Q48.02 12.22 48.02 11.38L48.02 11.38Q48.02 10.95 48.35 10.62Q48.68 10.29 49.17 10.18L49.17 10.18Q48.41 9.51 48.41 8.41L48.41 8.41Q48.41 7.32 49.19 6.65Q49.97 5.98 51.03 5.98Q52.09 5.98 52.84 6.48L52.84 6.48Q52.93 5.74 53.43 5.29Q53.93 4.84 54.74 4.84L54.74 4.84L54.64 5.94Q53.41 5.94 53.35 6.97L53.35 6.97Q53.84 7.57 53.84 8.41L53.84 8.41Q53.84 9.49 53.07 10.19Q52.29 10.88 51.13 10.88L51.13 10.88Q50.33 10.88 49.71 10.56L49.71 10.56Q49.43 10.61 49.21 10.82Q48.99 11.02 48.99 11.37L48.99 11.37Q48.99 12.11 50.22 12.11L50.22 12.11L52.82 12.11Q53.76 12.11 54.31 12.51Q54.85 12.91 54.85 13.62L54.85 13.62Q54.85 14.69 53.78 15.48Q52.71 16.28 51.07 16.28Q49.43 16.28 48.50 15.67Q47.56 15.06 47.56 14.14L47.56 14.14Q47.56 13.54 47.92 13.16Q48.27 12.78 48.86 12.63ZM48.65 14.10L48.65 14.10Q48.65 14.63 49.23 15.02Q49.81 15.40 51.00 15.40Q52.18 15.40 52.97 14.89Q53.76 14.38 53.76 13.69L53.76 13.69Q53.76 13.37 53.53 13.14Q53.30 12.91 52.82 12.91L52.82 12.91L50.12 12.91Q49.41 12.94 49.03 13.25Q48.65 13.57 48.65 14.10ZM52.77 8.41Q52.77 7.69 52.33 7.23Q51.90 6.78 51.14 6.78Q50.37 6.78 49.94 7.23Q49.50 7.69 49.50 8.41L49.50 8.41Q49.50 9.14 49.95 9.61Q50.39 10.08 51.14 10.08L51.14 10.08Q51.90 10.08 52.33 9.60Q52.77 9.13 52.77 8.41ZM57.43 6.15L57.55 7.43Q58.21 5.98 59.81 5.98L59.81 5.98Q61.00 5.98 61.66 6.76Q62.33 7.55 62.33 8.90L62.33 8.90L62.33 12.84L61.24 12.84L61.24 8.90Q61.24 7.94 60.78 7.45Q60.33 6.96 59.49 6.96Q58.65 6.96 58.13 7.64Q57.61 8.33 57.58 9.55L57.58 9.55L57.58 12.84L56.48 12.84L56.48 6.15L57.43 6.15Z"></path></g><!----><!----></svg>